<?xml version="1.0" encoding="UTF-8"?>
<svg width="39px" height="39px" viewBox="0 0 39 39" version="1.1" xmlns="http://www.w3.org/2000/svg" xmlns:xlink="http://www.w3.org/1999/xlink">
    <!-- Generator: Sketch 47.1 (45422) - http://www.bohemiancoding.com/sketch -->
    <title>Icon / Red / Bundles</title>
    <desc>Created with Sketch.</desc>
    <defs></defs>
    <g id="Symbols" stroke="none" stroke-width="1" fill="none" fill-rule="evenodd">
        <g id="Desktop-/-Sub-Nav" transform="translate(-539.000000, -18.000000)" fill="#DA262D">
            <g id="Icon-/-Red-/-Bundles" transform="translate(539.000000, 18.000000)">
                <path d="M19.5,39 C8.73044738,39 0,30.2695526 0,19.5 C0,8.73044738 8.73044738,0 19.5,0 C30.2695526,0 39,8.73044738 39,19.5 C39,30.2695526 30.2695526,39 19.5,39 Z M31,21.3802001 C31,20.9863086 30.8378094,20.6040021 30.5713533,20.325961 L22.2880463,12.0542391 C21.6972091,11.4634018 20.5734597,11 19.7509215,11 L17.1558715,11 C17.9784097,11 19.102159,11.4634018 19.6929963,12.0542391 L27.9763033,20.325961 C28.2427593,20.6040021 28.40495,20.9863086 28.40495,21.3802001 C28.40495,21.7740916 28.2427593,22.1563981 27.9763033,22.4228541 L22.5313323,27.8678252 C22.9252238,28.2733017 23.226435,28.5513428 23.8288573,28.5513428 C24.2227488,28.5513428 24.6050553,28.3891522 24.8830964,28.1226962 L30.5713533,22.4228541 C30.8378094,22.1563981 31,21.7740916 31,21.3802001 Z M26.5513428,21.3802001 C26.5513428,20.9863086 26.3891522,20.6040021 26.1226962,20.325961 L17.8393892,12.0542391 C17.2485519,11.4634018 16.1248025,11 15.3022643,11 L10.4828857,11 C9.6719326,11 9,11.6719326 9,12.4828857 L9,17.3022643 C9,18.1248025 9.46340179,19.2485519 10.0542391,19.8278041 L18.3375461,28.1226962 C18.6040021,28.3891522 18.9863086,28.5513428 19.3802001,28.5513428 C19.7740916,28.5513428 20.1563981,28.3891522 20.4344392,28.1226962 L26.1226962,22.4228541 C26.3891522,22.1563981 26.5513428,21.7740916 26.5513428,21.3802001 Z M14.1901001,14.7072143 C14.1901001,15.5297525 13.5297525,16.1901001 12.7072143,16.1901001 C11.8846761,16.1901001 11.2243286,15.5297525 11.2243286,14.7072143 C11.2243286,13.8846761 11.8846761,13.2243286 12.7072143,13.2243286 C13.5297525,13.2243286 14.1901001,13.8846761 14.1901001,14.7072143 Z"></path>
            </g>
        </g>
    </g>
</svg>