<?xml version="1.0" encoding="UTF-8"?>
<svg width="17px" height="13px" viewBox="0 0 17 13" version="1.1" xmlns="http://www.w3.org/2000/svg" xmlns:xlink="http://www.w3.org/1999/xlink">
    <!-- Generator: Sketch 47.1 (45422) - http://www.bohemiancoding.com/sketch -->
    <title>Icon / Teal / Check</title>
    <desc>Created with Sketch.</desc>
    <defs></defs>
    <g id="Symbols" stroke="none" stroke-width="1" fill="none" fill-rule="evenodd">
        <g id="Icon-/-Teal-/-Check" fill="#2B7E93">
            <path d="M16.0409903,2.52455357 C16.0409903,2.81473359 15.9444003,3.06138291 15.7512175,3.26450893 L6.85105519,12.6227679 C6.65787241,12.8258939 6.42329683,12.9274554 6.14732143,12.9274554 C5.87134602,12.9274554 5.63677045,12.8258939 5.44358766,12.6227679 L0.289772727,7.20368304 C0.0965899432,7.00055702 0,6.7539077 0,6.46372768 C0,6.17354766 0.0965899432,5.92689834 0.289772727,5.72377232 L1.69724026,4.24386161 C1.89042304,4.04073559 2.12499862,3.93917411 2.40097403,3.93917411 C2.67694943,3.93917411 2.91152501,4.04073559 3.10470779,4.24386161 L6.14732143,7.45396205 L12.9362825,0.3046875 C13.1294653,0.101561484 13.3640408,0 13.6400162,0 C13.9159916,0 14.1505672,0.101561484 14.34375,0.3046875 L15.7512175,1.78459821 C15.9444003,1.98772423 16.0409903,2.23437355 16.0409903,2.52455357 Z"></path>
        </g>
    </g>
</svg>