<?xml version="1.0" encoding="UTF-8"?>
<svg width="85px" height="68px" viewBox="0 0 85 68" version="1.1" xmlns="http://www.w3.org/2000/svg" xmlns:xlink="http://www.w3.org/1999/xlink">
    <!-- Generator: Sketch 47.1 (45422) - http://www.bohemiancoding.com/sketch -->
    <title>Icon / Teal / Deals</title>
    <desc>Created with Sketch.</desc>
    <defs></defs>
    <g id="Page-1" stroke="none" stroke-width="1" fill="none" fill-rule="evenodd">
        <g id="CXIB-5436-Legacy-Desktop-Bundles" transform="translate(-1058.000000, -1682.000000)" fill="#2B7E93">
            <g id="Icon-/-Teal-/-Deals" transform="translate(1058.000000, 1682.000000)">
                <path d="M20.142881,14.4285135 C20.142881,11.2588669 17.5982351,8.714221 14.4285885,8.714221 C11.2589418,8.714221 8.71429593,11.2588669 8.71429593,14.4285135 C8.71429593,17.5981602 11.2589418,20.1428061 14.4285885,20.1428061 C17.5982351,20.1428061 20.142881,17.5981602 20.142881,14.4285135 Z M67.7768663,40.1428299 C67.7768663,41.6606888 67.1518656,43.1339049 66.1250787,44.1606918 L44.2054097,66.1250037 C43.1339798,67.1517907 41.6607638,67.7767914 40.1429048,67.7767914 C38.6250459,67.7767914 37.1518298,67.1517907 36.1250429,66.1250037 L4.20536199,34.1606799 C1.92857356,31.9285344 0.142857143,27.5981721 0.142857143,24.4285254 L0.142857143,5.85707474 C0.142857143,2.73207101 2.73214594,0.142782211 5.85714967,0.142782211 L24.4286004,0.142782211 C27.598247,0.142782211 31.9286093,1.92849863 34.2053977,4.20528705 L66.1250787,36.0803251 C67.1518656,37.1517549 67.7768663,38.6249709 67.7768663,40.1428299 Z M84.9197439,40.1428299 C84.9197439,41.6606888 84.2947432,43.1339049 83.2679562,44.1606918 L61.3482872,66.1250037 C60.2768574,67.1517907 58.8036414,67.7767914 57.2857824,67.7767914 C54.9643511,67.7767914 53.8036354,66.7053616 52.2857764,65.1428597 L73.2679443,44.1606918 C74.2947313,43.1339049 74.919732,41.6606888 74.919732,40.1428299 C74.919732,38.6249709 74.2947313,37.1517549 73.2679443,36.0803251 L41.3482634,4.20528705 C39.071475,1.92849863 34.7411127,0.142782211 31.571466,0.142782211 L41.571478,0.142782211 C44.7411246,0.142782211 49.0714869,1.92849863 51.3482753,4.20528705 L83.2679562,36.0803251 C84.2947432,37.1517549 84.9197439,38.6249709 84.9197439,40.1428299 Z" id="teal-deals"></path>
            </g>
        </g>
    </g>
</svg>