<?xml version="1.0" encoding="UTF-8"?>
<svg width="136px" height="72px" viewBox="0 0 136 72" version="1.1" xmlns="http://www.w3.org/2000/svg" xmlns:xlink="http://www.w3.org/1999/xlink">
    <!-- Generator: Sketch 47.1 (45422) - http://www.bohemiancoding.com/sketch -->
    <title>Illustration / Double Play</title>
    <desc>Created with Sketch.</desc>
    <defs>
        <path d="M8.71130769,2.03555056 C8.19276923,2.03555056 7.76907692,2.45840449 7.76907692,2.97530337 L7.76907692,10.7810337 C7.76907692,11.297236 8.19276923,11.7207865 8.71130769,11.7207865 L9.054,11.7207865 C9.57184615,11.7207865 9.99623077,11.297236 9.99623077,10.7810337 L9.99623077,2.97530337 C9.99623077,2.45840449 9.57184615,2.03555056 9.054,2.03555056 L8.71130769,2.03555056 Z" id="path-1"></path>
    </defs>
    <g id="Symbols" stroke="none" stroke-width="1" fill="none" fill-rule="evenodd">
        <g id="Illustration-/-Double-Play">
            <g>
                <g id="Laptop" transform="translate(15.000000, 0.000000)">
                    <path d="M16.870624,0.57424926 C15.4158752,0.609297337 14.2413663,1.82519601 14.2413663,3.31339127 L14.2413663,63.5178994 L106.288591,63.5178994 L106.288591,3.31339127 C106.288591,1.82519601 105.113189,0.609297337 103.656656,0.57424926 L16.870624,0.57424926 Z" id="Clip-56" fill="#58595B"></path>
                    <polygon id="Fill-61" fill="#FFFFFF" points="19.2825112 59.1033395 101.868513 59.1033395 101.868513 5.45192308 19.2825112 5.45192308"></polygon>
                    <path d="M120.413042,66.3008586 L120.413042,66.2884948 L0.118700365,66.2884948 C0.118700365,66.3630843 0.301659574,66.8672374 0.597964244,67.0110244 C0.597964244,67.0110244 2.85594863,69.7016383 4.8979519,69.7016383 L115.661457,69.7016383 C117.44821,69.7016383 119.961445,67.0110244 119.961445,67.0110244 C120.248892,66.8727464 120.400203,66.4069558 120.413042,66.3008586 L120.413042,66.3008586 Z" id="Clip-64" fill="#A7A9AC"></path>
                    <path d="M0.479263879,63.5187981 C0.278454991,63.5187981 0.117807881,63.654497 0.117807881,63.8216494 L0.117807881,66.2884948 L120.413042,66.2884948 L120.413042,63.8216494 C120.413042,63.654497 120.25061,63.5187981 120.052478,63.5187981 L0.479263879,63.5187981 Z" id="Clip-67" fill="#58595B"></path>
                    <path d="M52.704747,63.5295821 L52.8475444,64.544179 C52.8975235,64.7320007 52.9796321,64.9153291 53.1376017,64.9153291 L67.3753981,64.9153291 C67.5369377,64.9153291 67.6172613,64.7275074 67.6663479,64.544179 L67.8359198,63.5178994 L52.704747,63.5295821 Z" id="Clip-70" fill="#FFFFFF"></path>
                    <path d="M105.489818,64.2260503 C105.162276,64.2260503 104.890068,64.5019416 104.890068,64.837145 L104.890068,64.991716 C104.890068,65.3287167 105.162276,65.6037093 105.489818,65.6037093 L107.085579,65.6037093 C107.417583,65.6037093 107.686221,65.3287167 107.686221,64.991716 L107.686221,64.837145 C107.686221,64.5019416 107.417583,64.2260503 107.085579,64.2260503 L105.489818,64.2260503 Z" id="Clip-73" fill="#FFFFFF"></path>
                    <path d="M108.899999,64.9018491 C108.899999,64.5172189 109.208798,64.2026849 109.588104,64.2026849 C109.969194,64.2026849 110.277101,64.5172189 110.277101,64.9018491 C110.277101,65.2909726 109.969194,65.6037093 109.588104,65.6037093 C109.208798,65.6037093 108.899999,65.2909726 108.899999,64.9018491 Z" id="Clip-76" fill="#FFFFFF"></path>
                </g>
                <g id="Phone" transform="translate(0.000000, 10.000000)">
                    <path d="M21.8762308,12.0381708 C21.8762308,9.15541907 19.5316886,6.81414831 16.65,6.81414831 L11.3801538,6.81414831 L11.3801538,2.97502472 C11.3801538,1.68728099 10.3361813,0.642013483 9.05330769,0.642013483 L8.71130769,0.642013483 C7.4284341,0.642013483 6.38446154,1.68728099 6.38446154,2.97502472 L6.38446154,8.6095676 C5.55354415,9.55971646 5.08984615,10.7779326 5.08984615,12.0381708 L5.08984615,34.181227 L2.75192308,34.181227 C1.41426626,34.181227 0.325384615,35.2711691 0.325384615,36.6138562 L0.325384615,56.9380135 C0.325384615,59.6186347 2.50505112,61.7963056 5.18330769,61.7963056 L21.7827692,61.7963056 C24.4615933,61.7963056 26.6413846,59.6187598 26.6413846,56.9380135 L26.6413846,36.6138562 C26.6413846,35.2711691 25.552503,34.181227 24.2148462,34.181227 L21.8762308,34.181227 L21.8762308,12.0381708 Z" id="Fill-33" fill="#FFFFFF" fill-rule="nonzero"></path>
                    <polygon id="Fill-43" fill="#FFFFFF" points="8.65246154 18.9462247 18.3565385 18.9462247 18.3565385 12.2488315 8.65246154 12.2488315"></polygon>
                    <path d="M10.3153846,8.20768539 L16.6506923,8.20768539 C18.7615385,8.20768539 20.4916154,9.93253933 20.4916154,12.0377528 L20.4916154,50.5892135 C20.4916154,52.6972135 18.7615385,54.4199775 16.6506923,54.4199775 L10.3153846,54.4199775 C8.20246154,54.4199775 6.47446154,52.6972135 6.47446154,50.5892135 L6.47446154,12.0377528 C6.47446154,9.93253933 8.20246154,8.20768539 10.3153846,8.20768539 Z M8.65246154,18.9469213 L18.3565385,18.9469213 L18.3565385,12.2488315 L8.65246154,12.2488315 L8.65246154,18.9469213 Z M21.6145385,35.574764 L24.2148462,35.574764 C24.7901538,35.574764 25.2567692,36.0401124 25.2567692,36.6141348 L25.2567692,56.9382921 C25.2567692,58.851236 23.7011538,60.4026292 21.7834615,60.4026292 L5.184,60.4026292 C3.26561538,60.4026292 1.70930769,58.851236 1.70930769,56.9382921 L1.70930769,36.6141348 C1.70930769,36.0401124 2.17661538,35.574764 2.75192308,35.574764 L5.35153846,35.574764 L5.35153846,50.5892135 C5.35153846,53.3193034 7.578,55.5408539 10.3153846,55.5408539 L16.6506923,55.5408539 C19.3880769,55.5408539 21.6145385,53.3193034 21.6145385,50.5892135 L21.6145385,35.574764 Z" id="Clip-39" fill="#58595B"></path>
                    <mask id="mask-2" fill="white">
                        <use xlink:href="#path-1"></use>
                    </mask>
                    <use id="Clip-51" fill="#58595B" xlink:href="#path-1"></use>
                    <path d="M8.95015385,48.3767191 C8.95015385,48.6623371 9.18207692,48.8950112 9.46661538,48.8950112 L10.5230769,48.8950112 C10.8096923,48.8950112 11.0423077,48.6623371 11.0423077,48.3767191 L11.0423077,47.8431011 C11.0423077,47.5560899 10.8096923,47.3234157 10.5230769,47.3234157 L9.46661538,47.3234157 C9.18207692,47.3234157 8.95015385,47.5560899 8.95015385,47.8431011 L8.95015385,48.3767191 Z" id="Path" fill="#FFFFFF"></path>
                    <path d="M12.5453077,48.3767191 C12.5453077,48.6623371 12.7779231,48.8950112 13.0659231,48.8950112 L14.1196154,48.8950112 C14.4062308,48.8950112 14.6388462,48.6623371 14.6388462,48.3767191 L14.6388462,47.8431011 C14.6388462,47.5560899 14.4062308,47.3234157 14.1196154,47.3234157 L13.0659231,47.3234157 C12.7779231,47.3234157 12.5453077,47.5560899 12.5453077,47.8431011 L12.5453077,48.3767191 Z" id="Path" fill="#FFFFFF"></path>
                    <path d="M15.9971538,48.3613933 C15.9971538,48.6470112 16.2318462,48.8775955 16.5184615,48.8775955 L17.5728462,48.8775955 C17.8573846,48.8775955 18.0893077,48.6470112 18.0893077,48.3613933 L18.0893077,47.8249888 C18.0893077,47.5386742 17.8573846,47.3080899 17.5728462,47.3080899 L16.5184615,47.3080899 C16.2318462,47.3080899 15.9971538,47.5386742 15.9971538,47.8249888 L15.9971538,48.3613933 Z" id="Path" fill="#FFFFFF"></path>
                    <path d="M8.95015385,45.117191 C8.95015385,45.4021124 9.18207692,45.6333933 9.46661538,45.6333933 L10.5230769,45.6333933 C10.8096923,45.6333933 11.0423077,45.4021124 11.0423077,45.117191 L11.0423077,44.5807865 C11.0423077,44.2958652 10.8096923,44.0617978 10.5230769,44.0617978 L9.46661538,44.0617978 C9.18207692,44.0617978 8.95015385,44.2958652 8.95015385,44.5807865 L8.95015385,45.117191 Z" id="Path" fill="#FFFFFF"></path>
                    <path d="M12.5453077,45.117191 C12.5453077,45.4021124 12.7779231,45.6333933 13.0659231,45.6333933 L14.1196154,45.6333933 C14.4062308,45.6333933 14.6388462,45.4021124 14.6388462,45.117191 L14.6388462,44.5807865 C14.6388462,44.2958652 14.4062308,44.0617978 14.1196154,44.0617978 L13.0659231,44.0617978 C12.7779231,44.0617978 12.5453077,44.2958652 12.5453077,44.5807865 L12.5453077,45.117191 Z" id="Path" fill="#FFFFFF"></path>
                    <path d="M15.9971538,45.098382 C15.9971538,45.3853933 16.2318462,45.6173708 16.5184615,45.6173708 L17.5728462,45.6173708 C17.8573846,45.6173708 18.0893077,45.3853933 18.0893077,45.098382 L18.0893077,44.564764 C18.0893077,44.2805393 17.8573846,44.0464719 17.5728462,44.0464719 L16.5184615,44.0464719 C16.2318462,44.0464719 15.9971538,44.2805393 15.9971538,44.564764 L15.9971538,45.098382 Z" id="Path" fill="#FFFFFF"></path>
                    <path d="M8.95015385,41.8729888 C8.95015385,42.16 9.18207692,42.3919775 9.46661538,42.3919775 L10.5230769,42.3919775 C10.8096923,42.3919775 11.0423077,42.16 11.0423077,41.8729888 L11.0423077,41.3386742 C11.0423077,41.0530562 10.8096923,40.8231685 10.5230769,40.8231685 L9.46661538,40.8231685 C9.18207692,40.8231685 8.95015385,41.0530562 8.95015385,41.3386742 L8.95015385,41.8729888 Z" id="Path" fill="#FFFFFF"></path>
                    <path d="M12.5453077,41.8729888 C12.5453077,42.16 12.7779231,42.3919775 13.0659231,42.3919775 L14.1196154,42.3919775 C14.4062308,42.3919775 14.6388462,42.16 14.6388462,41.8729888 L14.6388462,41.3386742 C14.6388462,41.0530562 14.4062308,40.8231685 14.1196154,40.8231685 L13.0659231,40.8231685 C12.7779231,40.8231685 12.5453077,41.0530562 12.5453077,41.3386742 L12.5453077,41.8729888 Z" id="Path" fill="#FFFFFF"></path>
                    <path d="M15.9971538,41.8729888 C15.9971538,42.16 16.2318462,42.3919775 16.5184615,42.3919775 L17.5728462,42.3919775 C17.8573846,42.3919775 18.0893077,42.16 18.0893077,41.8729888 L18.0893077,41.3386742 C18.0893077,41.0530562 17.8573846,40.8231685 17.5728462,40.8231685 L16.5184615,40.8231685 C16.2318462,40.8231685 15.9971538,41.0530562 15.9971538,41.3386742 L15.9971538,41.8729888 Z" id="Path" fill="#FFFFFF"></path>
                    <path d="M8.95015385,38.6517753 C8.95015385,38.9380899 9.18207692,39.1700674 9.46661538,39.1700674 L10.5230769,39.1700674 C10.8096923,39.1700674 11.0423077,38.9380899 11.0423077,38.6517753 L11.0423077,38.1160674 C11.0423077,37.8297528 10.8096923,37.5977753 10.5230769,37.5977753 L9.46661538,37.5977753 C9.18207692,37.5977753 8.95015385,37.8297528 8.95015385,38.1160674 L8.95015385,38.6517753 Z" id="Path" fill="#FFFFFF"></path>
                    <path d="M12.5453077,38.6517753 C12.5453077,38.9380899 12.7779231,39.1700674 13.0659231,39.1700674 L14.1196154,39.1700674 C14.4062308,39.1700674 14.6388462,38.9380899 14.6388462,38.6517753 L14.6388462,38.1160674 C14.6388462,37.8297528 14.4062308,37.5977753 14.1196154,37.5977753 L13.0659231,37.5977753 C12.7779231,37.5977753 12.5453077,37.8297528 12.5453077,38.1160674 L12.5453077,38.6517753 Z" id="Path" fill="#FFFFFF"></path>
                    <path d="M15.9971538,38.6517753 C15.9971538,38.9380899 16.2318462,39.1700674 16.5184615,39.1700674 L17.5728462,39.1700674 C17.8573846,39.1700674 18.0893077,38.9380899 18.0893077,38.6517753 L18.0893077,38.1160674 C18.0893077,37.8297528 17.8573846,37.5977753 17.5728462,37.5977753 L16.5184615,37.5977753 C16.2318462,37.5977753 15.9971538,37.8297528 15.9971538,38.1160674 L15.9971538,38.6517753 Z" id="Path" fill="#FFFFFF"></path>
                    <path d="M8.95015385,26.7624045 C8.95015385,27.0480225 9.18207692,27.2806966 9.46661538,27.2806966 L10.5230769,27.2806966 C10.8096923,27.2806966 11.0423077,27.0480225 11.0423077,26.7624045 L11.0423077,26.2280899 C11.0423077,25.9424719 10.8096923,25.7091011 10.5230769,25.7091011 L9.46661538,25.7091011 C9.18207692,25.7091011 8.95015385,25.9424719 8.95015385,26.2280899 L8.95015385,26.7624045 Z" id="Path" fill="#A7A9AC"></path>
                    <path d="M12.5453077,26.7624045 C12.5453077,27.0480225 12.7779231,27.2806966 13.0659231,27.2806966 L14.1196154,27.2806966 C14.4062308,27.2806966 14.6388462,27.0480225 14.6388462,26.7624045 L14.6388462,26.2280899 C14.6388462,25.9424719 14.4062308,25.7091011 14.1196154,25.7091011 L13.0659231,25.7091011 C12.7779231,25.7091011 12.5453077,25.9424719 12.5453077,26.2280899 L12.5453077,26.7624045 Z" id="Path" fill="#A7A9AC"></path>
                    <path d="M15.9971538,26.7477753 C15.9971538,27.0333933 16.2318462,27.2639775 16.5184615,27.2639775 L17.5728462,27.2639775 C17.8573846,27.2639775 18.0893077,27.0333933 18.0893077,26.7477753 L18.0893077,26.2106742 C18.0893077,25.9257528 17.8573846,25.6937753 17.5728462,25.6937753 L16.5184615,25.6937753 C16.2318462,25.6937753 15.9971538,25.9257528 15.9971538,26.2106742 L15.9971538,26.7477753 Z" id="Path" fill="#A7A9AC"></path>
                    <path d="M8.95015385,23.479191 C8.95015385,23.7662022 9.18207692,23.9974831 9.46661538,23.9974831 L10.5230769,23.9974831 C10.8096923,23.9974831 11.0423077,23.7662022 11.0423077,23.479191 L11.0423077,22.945573 C11.0423077,22.6599551 10.8096923,22.4272809 10.5230769,22.4272809 L9.46661538,22.4272809 C9.18207692,22.4272809 8.95015385,22.6599551 8.95015385,22.945573 L8.95015385,23.479191 Z" id="Path" fill="#A7A9AC"></path>
                    <path d="M12.5453077,23.479191 C12.5453077,23.7662022 12.7779231,23.9974831 13.0659231,23.9974831 L14.1196154,23.9974831 C14.4062308,23.9974831 14.6388462,23.7662022 14.6388462,23.479191 L14.6388462,22.945573 C14.6388462,22.6599551 14.4062308,22.4272809 14.1196154,22.4272809 L13.0659231,22.4272809 C12.7779231,22.4272809 12.5453077,22.6599551 12.5453077,22.945573 L12.5453077,23.479191 Z" id="Path" fill="#A7A9AC"></path>
                    <path d="M15.9971538,23.4645618 C15.9971538,23.7508764 16.2318462,23.9821573 16.5184615,23.9821573 L17.5728462,23.9821573 C17.8573846,23.9821573 18.0893077,23.7508764 18.0893077,23.4645618 L18.0893077,22.9288539 C18.0893077,22.643236 17.8573846,22.4112584 17.5728462,22.4112584 L16.5184615,22.4112584 C16.2318462,22.4112584 15.9971538,22.643236 15.9971538,22.9288539 L15.9971538,23.4645618 Z" id="Path" fill="#A7A9AC"></path>
                </g>
                <text id="Speed" font-family=".AppleSystemUIFont" font-size="14" font-weight="normal" line-spacing="14" fill="#58595B">
                    <tspan x="43.0382042" y="48.3113732">00 Mbps</tspan>
                </text>
                <g id="Illustration-/-Speedometer" transform="translate(65.000000, 14.000000)">
                    <g id="Speedometer">
                        <path d="M18.7523915,5.71904884 C16.4823915,0.790001219 10.6466773,-1.36666545 5.71858202,0.902858362 C0.790010592,3.1709536 -1.36665608,9.00714408 0.902867734,13.9361917 C3.17096297,18.8652393 9.00762964,21.021906 13.9366773,18.7528584 C18.8647725,16.4833346 21.0214392,10.6471441 18.7523915,5.71904884" id="Fill-86" fill="#58595B"></path>
                        <path d="M14.3968677,6.81557265 L14.3968677,6.81652503 C15.1811534,8.30652503 15.4344868,10.068906 15.0140106,11.7941441 L15.0140106,11.7941441 L18.0254392,12.8708107 C19.0097249,10.1150965 18.5692487,7.19938217 17.0882963,4.92366789 L17.0882963,4.92366789 L14.3968677,6.81557265 Z" id="Fill-92" fill="#FAC455"></path>
                        <path d="M9.72901059,3.20776312 C9.9885344,3.26823931 10.2466296,3.34252503 10.5047249,3.4339536 C10.8213915,3.54728693 11.1256773,3.68252503 11.4156773,3.83347741 L12.327582,1.28204884 C11.4613915,1.00109646 10.5828201,0.858239314 9.71472488,0.842048838 L9.72901059,3.20776312 Z" id="Fill-94" fill="#FAC455"></path>
                        <path d="M12.8294868,1.46252503 L11.8852011,4.10442979 C12.8113915,4.68347741 13.5704392,5.45776312 14.1304392,6.35157265 L16.7837725,4.48490598 C15.8085344,3.16538217 14.4623439,2.10062027 12.8294868,1.46252503" id="Fill-96" fill="#FAC455"></path>
                        <path d="M17.460619,4.98742584 L10.8302,9.60521253 C10.6076739,9.9560729 10.283013,10.233631 9.89195411,10.3968933 C9.63953582,10.5027266 9.3725733,10.5558362 9.10354187,10.5558362 C8.28462489,10.5558362 7.53517217,10.0658432 7.21194522,9.29581349 C6.77806214,8.25238364 7.27037513,7.05402551 8.31354906,6.61900795 C8.56667446,6.51374186 8.83239311,6.46059813 9.09973234,6.46059813 C9.24687824,6.46059813 9.39262228,6.47640549 9.5352244,6.50787903 L17.460619,4.98742584 Z" id="Combined-Shape" fill="#58595B" fill-rule="nonzero" transform="translate(12.257460, 7.771631) rotate(-27.000000) translate(-12.257460, -7.771631) "></path>
                        <path d="M9.69223917,7.31972919 L15.5203344,6.20163395 L10.6446201,9.59734824 C10.4789058,9.89449109 10.2160487,10.1411578 9.87842965,10.2821101 C9.6808106,10.3649673 9.4760487,10.4040149 9.27414393,10.4040149 C8.65890584,10.4040149 8.07509631,10.0397292 7.82223917,9.43734824 C7.48938203,8.63687205 7.86652489,7.71687205 8.66700108,7.38306252 C8.86509631,7.30068157 9.06890584,7.26115776 9.27033441,7.26115776 C9.41366774,7.26115776 9.55509631,7.28068157 9.69223917,7.31972919 Z M9.29509631,9.53687205 C9.68958542,9.53687205 10.009382,9.21707544 10.009382,8.82258633 C10.009382,8.42809722 9.68958542,8.10830062 9.29509631,8.10830062 C8.90060721,8.10830062 8.5808106,8.42809722 8.5808106,8.82258633 C8.5808106,9.21707544 8.90060721,9.53687205 9.29509631,9.53687205 Z" id="Combined-Shape" fill="#FFFFFF" transform="translate(11.610778, 8.302824) rotate(-27.000000) translate(-11.610778, -8.302824) "></path>
                    </g>
                </g>
            </g>
        </g>
    </g>
</svg>