<?xml version="1.0" encoding="UTF-8"?>
<svg width="16px" height="16px" viewBox="0 0 16 16" version="1.1" xmlns="http://www.w3.org/2000/svg" xmlns:xlink="http://www.w3.org/1999/xlink">
    <!-- Generator: Sketch 47.1 (45422) - http://www.bohemiancoding.com/sketch -->
    <title>globe</title>
    <desc>Created with Sketch.</desc>
    <defs></defs>
    <g id="Symbols" stroke="none" stroke-width="1" fill="none" fill-rule="evenodd">
        <g id="Desktop-/-Mast" transform="translate(-1089.000000, -24.000000)" fill="#DA262D">
            <g id="Group-4">
                <g transform="translate(896.000000, 24.000000)">
                    <path d="M201,0 C196.583333,0 193,3.58333333 193,8 C193,12.4166667 196.583333,16 201,16 C205.416667,16 209,12.4166667 209,8 C209,3.58333333 205.416667,0 201,0 Z M203.854167,5.42708333 C203.96875,5.35416667 204.15625,5.26041667 204.302083,5.30208333 C204.416667,5.33333333 204.510417,5.375 204.375,5.46875 C204.3125,5.51041667 204.21875,5.46875 204.145833,5.48958333 C204.239583,5.51041667 204.375,5.55208333 204.333333,5.64583333 C204.604167,5.80208333 204.25,5.98958333 204.072917,5.96875 C204.15625,5.97916667 203.895833,6.13541667 203.895833,6.125 C203.802083,6.17708333 203.677083,6.17708333 203.604167,6.27083333 C203.520833,6.38541667 203.635417,6.58333333 203.479167,6.54166667 C203.416667,6.67708333 203.177083,6.60416667 203.072917,6.75 C203.1875,6.875 202.958333,7.05208333 202.84375,6.89583333 C202.739583,6.9375 202.791667,7.05208333 202.6875,7.11458333 C202.729167,7.17708333 202.739583,7.23958333 202.666667,7.28125 C202.6875,7.27083333 202.8125,7.375 202.84375,7.38541667 C202.822917,7.4375 202.78125,7.47916667 202.729167,7.47916667 C202.78125,7.61458333 202.666667,7.76041667 202.572917,7.84375 C202.46875,7.92708333 202.229167,8.01041667 202.197917,8.03125 C202.010417,8.20833333 201.885417,8.46875 202.21875,8.54166667 C202.229167,8.54166667 202.229167,8.88541667 202.239583,8.89583333 C202.260417,9.02083333 202.3125,9.38541667 202.09375,9.25 C201.989583,9.19791667 201.927083,8.90625 201.895833,8.79166667 C201.864583,8.66666667 201.854167,8.66666667 201.770833,8.54166667 C201.635417,8.69791667 201.614583,8.58333333 201.5,8.51041667 C201.385417,8.44791667 201.21875,8.46875 201.15625,8.40625 C201,8.52083333 200.885417,8.48958333 200.854167,8.3125 C200.8125,8.39583333 200.895833,8.52083333 200.885417,8.55208333 C200.833333,8.65625 200.739583,8.63541667 200.65625,8.57291667 C200.520833,8.46875 200.229167,8.64583333 200.072917,8.57291667 C200.083333,8.57291667 200.125,8.61458333 200.15625,8.63541667 C200.125,8.76041667 200.052083,8.6875 199.989583,8.72916667 C199.916667,8.78125 199.854167,8.88541667 199.791667,8.9375 C199.927083,9.19791667 199.78125,9.44791667 199.791667,9.72916667 C199.791667,9.9375 199.927083,10.3020833 200.125,10.4166667 C200.21875,10.46875 200.53125,10.4895833 200.625,10.4479167 C200.770833,10.3854167 200.75,10.2708333 200.802083,10.1458333 C200.854167,10.0104167 200.916667,9.94791667 201.072917,9.9375 C201.520833,9.91666667 201.177083,10.28125 201.125,10.46875 C201.09375,10.6041667 201.083333,10.7604167 201.0625,10.8854167 C201.114583,10.90625 201.166667,10.8958333 201.21875,10.8958333 C201.21875,10.8541667 201.25,10.8020833 201.25,10.7708333 C201.3125,10.875 201.520833,10.90625 201.583333,10.78125 C201.65625,10.90625 201.802083,11 201.822917,11.1458333 C201.84375,11.2916667 201.979167,11.4479167 201.78125,11.4479167 C201.635417,11.4479167 201.802083,11.7395833 201.822917,11.7916667 C201.9375,12 202.125,12.0833333 202.333333,11.9791667 C202.333333,12.0625 202.302083,12.2916667 202.1875,12.3125 C202.083333,12.3333333 201.885417,12.1145833 201.927083,12 C201.916667,12.0416667 201.885417,12.0729167 201.854167,12.09375 C201.75,11.96875 201.572917,11.90625 201.479167,11.78125 C201.458333,11.75 201.177083,11.3229167 201.239583,11.3020833 C201.09375,11.3645833 200.802083,11.2604167 200.666667,11.1875 C200.447917,11.0729167 200.416667,10.7708333 200.145833,10.8125 C199.958333,10.84375 199.90625,10.9166667 199.6875,10.8333333 C199.541667,10.78125 199.416667,10.6770833 199.270833,10.6041667 C199.104167,10.5104167 198.8125,10.4166667 198.75,10.2083333 C198.6875,10.0416667 198.708333,9.84375 198.614583,9.6875 C198.552083,9.58333333 198.364583,9.375 198.229167,9.375 C198.354167,9.375 198.114583,9.0625 198.083333,9.03125 C197.96875,8.89583333 197.552083,8.53125 197.635417,8.32291667 C197.65625,8.29166667 197.427083,8.20833333 197.385417,8.19791667 C197.427083,8.30208333 197.4375,8.41666667 197.489583,8.51041667 C197.541667,8.61458333 197.604167,8.70833333 197.666667,8.8125 C197.78125,9 197.9375,9.22916667 197.916667,9.45833333 C197.78125,9.5 197.822917,9.30208333 197.78125,9.21875 C197.708333,9.08333333 197.510417,9.08333333 197.458333,8.9375 C197.479167,8.92708333 197.489583,8.92708333 197.510417,8.91666667 C197.520833,8.73958333 197.260417,8.59375 197.302083,8.46875 C197.15625,8.35416667 197.15625,8.13541667 197.052083,7.98958333 C196.958333,7.85416667 196.802083,7.79166667 196.666667,7.69791667 C196.614583,7.66666667 196.239583,7.1875 196.375,7.15625 C196.166667,7.20833333 196.0625,6.71875 196.09375,6.59375 C196.09375,6.59375 196.072917,6.59375 196.072917,6.58333333 C196.114583,6.45833333 196.041667,5.8125 196.208333,5.80208333 C196.09375,5.8125 196.0625,5.53125 196.09375,5.47916667 C196.114583,5.4375 196.270833,5.59375 196.28125,5.61458333 C196.34375,5.58333333 196.40625,5.5 196.385417,5.42708333 C196.354167,5.34375 196.239583,5.27083333 196.166667,5.20833333 C196.135417,5.1875 195.71875,4.91666667 195.708333,4.92708333 C195.75,4.85416667 195.739583,4.78125 195.677083,4.72916667 C195.479167,4.88541667 195.583333,4.58333333 195.479167,4.55208333 C195.4375,4.54166667 195.395833,4.51041667 195.354167,4.46875 C195.958333,3.51041667 196.802083,2.70833333 197.802083,2.15625 C197.864583,2.14583333 197.947917,2.14583333 198.03125,2.14583333 C198.21875,2.16666667 198.322917,2.32291667 198.458333,2.41666667 C198.479167,2.36458333 198.4375,2.28125 198.40625,2.22916667 C198.4375,2.14583333 198.5625,2.125 198.635417,2.10416667 C198.729167,2.09375 198.864583,2.07291667 198.947917,2.11458333 C198.885417,2.02083333 198.8125,1.9375 198.739583,1.85416667 C198.729167,1.86458333 198.697917,1.88541667 198.6875,1.90625 C198.572917,1.8125 198.354167,1.9375 198.25,1.97916667 C198.166667,2.02083333 198.09375,2.07291667 198.010417,2.10416667 C197.958333,2.125 197.927083,2.125 197.885417,2.11458333 C198.197917,1.94791667 198.520833,1.80208333 198.864583,1.6875 C198.927083,1.72916667 198.989583,1.80208333 199.083333,1.875 C199.020833,1.82291667 199.020833,2.0625 199.041667,2.10416667 C199.15625,2.26041667 199.40625,2.15625 199.5625,2.15625 C199.552083,2.15625 200.020833,2.21875 199.927083,2.10416667 C200,2.20833333 200,2.36458333 200.09375,2.45833333 C200.1875,2.36458333 200.052083,2.26041667 200.114583,2.16666667 C200.135417,2.125 200.322917,2.07291667 200.385417,2.04166667 C200.458333,1.98958333 200.333333,1.91666667 200.302083,1.89583333 C200.197917,1.83333333 199.791667,1.80208333 199.989583,1.5625 C200.0625,1.47916667 200.322917,1.52083333 200.40625,1.57291667 C200.520833,1.63541667 200.645833,1.75 200.489583,1.85416667 C200.5625,1.86458333 200.90625,1.95833333 200.854167,2.09375 C200.885417,2.03125 200.9375,1.9375 201.020833,1.9375 C201.114583,1.94791667 201.135417,2.16666667 201.177083,2.21875 C201.322917,2.47916667 201.572917,1.95833333 201.614583,1.97916667 C201.427083,1.90625 201.78125,1.8125 201.875,1.84375 C201.947917,1.875 202.0625,2.125 201.927083,2.11458333 C202.041667,2.21875 202.052083,2.44791667 201.84375,2.4375 C201.697917,2.42708333 201.53125,2.22916667 201.395833,2.38541667 C201.302083,2.48958333 201.260417,2.64583333 201.166667,2.73958333 C201.020833,2.88541667 200.822917,2.875 200.645833,2.85416667 C200.71875,2.86458333 200.489583,3.10416667 200.46875,3.14583333 C200.40625,3.21875 200.364583,3.30208333 200.34375,3.38541667 C200.322917,3.48958333 200.34375,3.60416667 200.291667,3.70833333 C200.46875,3.65625 200.5625,3.97916667 200.489583,3.98958333 C200.708333,3.95833333 200.885417,3.95833333 201.09375,4.03125 C201.239583,4.08333333 201.458333,4.14583333 201.520833,4.30208333 C201.5625,4.23958333 201.760417,4.27083333 201.822917,4.29166667 C201.947917,4.35416667 201.958333,4.48958333 201.989583,4.60416667 C202.03125,4.76041667 202.166667,5.02083333 202.34375,4.9375 C202.375,4.91666667 202.604167,4.8125 202.520833,4.75 C202.4375,4.67708333 202.34375,4.48958333 202.427083,4.38541667 C202.510417,4.27083333 202.708333,4.23958333 202.760417,4.09375 C202.84375,3.85416667 202.510417,3.88541667 202.510417,3.70833333 C202.510417,3.60416667 202.645833,3.57291667 202.635417,3.44791667 C202.635417,3.34375 202.479167,3.13541667 202.604167,3.0625 C202.708333,3 203.208333,3.10416667 203.302083,3.16666667 C203.395833,3.22916667 203.6875,3.3125 203.708333,3.40625 L203.65625,3.40625 C203.739583,3.47916667 203.8125,3.63541667 203.666667,3.67708333 C203.760417,3.65625 204.03125,3.76041667 203.84375,3.82291667 C203.90625,3.79166667 203.958333,3.8125 204.020833,3.77083333 C204.09375,3.72916667 204.135417,3.65625 204.229167,3.70833333 C204.25,3.71875 204.364583,3.48958333 204.427083,3.5 C204.520833,3.51041667 204.541667,3.64583333 204.583333,3.70833333 C204.625,3.80208333 204.739583,3.83333333 204.78125,3.92708333 C204.854167,4.10416667 204.822917,4.27083333 205.0625,4.33333333 C205.135417,4.35416667 205.333333,4.23958333 205.322917,4.39583333 C205.364583,4.35416667 205.385417,4.32291667 205.385417,4.3125 C205.395833,4.45833333 205.458333,4.625 205.635417,4.60416667 C205.635417,4.60416667 205.635417,4.80208333 205.614583,4.83333333 C205.552083,4.92708333 205.395833,4.90625 205.302083,4.95833333 C205.270833,4.96875 205.020833,5.1875 205.052083,5.21875 C204.916667,5.0625 204.697917,5.0625 204.520833,5.10416667 C204.333333,5.13541667 204.15625,5.15625 203.979167,5.22916667 C203.895833,5.27083333 203.8125,5.3125 203.75,5.38541667 C203.71875,5.42708333 203.666667,5.61458333 203.614583,5.625 C203.71875,5.60416667 203.770833,5.48958333 203.854167,5.42708333 Z M202.15625,14.5625 C202.145833,14.5104167 202.135417,14.40625 202.135417,14.3958333 C202.125,14.2291667 202.302083,14.1145833 202.291667,13.9583333 C202.177083,13.9270833 202.145833,13.8125 202.166667,13.6875 C202.1875,13.5104167 202.34375,13.3854167 202.46875,13.2708333 C202.59375,13.15625 202.625,12.9166667 202.59375,12.7708333 C202.541667,12.5208333 202.541667,12.2604167 202.5,12.0104167 C202.510417,12.0729167 202.6875,12.0520833 202.71875,12.1354167 C202.760417,12.0625 202.78125,11.96875 202.833333,11.8958333 C202.875,11.8333333 202.947917,11.8125 203.010417,11.7604167 C203.114583,11.6979167 203.333333,11.4583333 203.458333,11.6041667 C203.5625,11.7291667 203.302083,11.8645833 203.4375,11.9791667 C203.479167,11.8958333 203.4375,11.7708333 203.520833,11.6875 C203.6875,11.5 203.802083,11.7083333 203.96875,11.7604167 C204.145833,11.8125 204.208333,11.875 204.34375,11.9895833 C204.302083,11.9479167 204.510417,11.875 204.53125,11.8645833 C204.729167,11.8229167 204.8125,11.9375 204.947917,12.0416667 C205.09375,12.1458333 205.322917,12.21875 205.302083,12.4270833 C205.40625,12.4479167 205.46875,12.4791667 205.552083,12.5104167 C205.635417,12.5520833 205.75,12.53125 205.8125,12.59375 C204.854167,13.6041667 203.583333,14.3125 202.15625,14.5625 Z" id="globe"></path>
                </g>
            </g>
        </g>
    </g>
</svg>