<?xml version="1.0" encoding="UTF-8"?>
<svg width="50px" height="40px" viewBox="0 0 50 40" version="1.1" xmlns="http://www.w3.org/2000/svg" xmlns:xlink="http://www.w3.org/1999/xlink">
    <!-- Generator: Sketch 47.1 (45422) - http://www.bohemiancoding.com/sketch -->
    <title>Icon / Gray / Image Placeholder</title>
    <desc>Created with Sketch.</desc>
    <defs></defs>
    <g id="Symbols" stroke="none" stroke-width="1" fill="none" fill-rule="evenodd">
        <g id="Icon-/-Gray-/-Image-Placeholder" fill="#E4E4E4">
            <path d="M16.6666667,11.6666667 C16.6666667,14.4270833 14.4270833,16.6666667 11.6666667,16.6666667 C8.90625,16.6666667 6.66666667,14.4270833 6.66666667,11.6666667 C6.66666667,8.90625 8.90625,6.66666667 11.6666667,6.66666667 C14.4270833,6.66666667 16.6666667,8.90625 16.6666667,11.6666667 Z M43.3333333,21.6666667 L43.3333333,33.3333333 L6.66666667,33.3333333 L6.66666667,28.3333333 L15,20 L19.1666667,24.1666667 L32.5,10.8333333 L43.3333333,21.6666667 Z M45.8333333,3.33333333 L4.16666667,3.33333333 C3.72395833,3.33333333 3.33333333,3.72395833 3.33333333,4.16666667 L3.33333333,35.8333333 C3.33333333,36.2760417 3.72395833,36.6666667 4.16666667,36.6666667 L45.8333333,36.6666667 C46.2760417,36.6666667 46.6666667,36.2760417 46.6666667,35.8333333 L46.6666667,4.16666667 C46.6666667,3.72395833 46.2760417,3.33333333 45.8333333,3.33333333 Z M50,4.16666667 L50,35.8333333 C50,38.125 48.125,40 45.8333333,40 L4.16666667,40 C1.875,40 0,38.125 0,35.8333333 L0,4.16666667 C0,1.875 1.875,0 4.16666667,0 L45.8333333,0 C48.125,0 50,1.875 50,4.16666667 Z"></path>
        </g>
    </g>
</svg>