<?xml version="1.0" encoding="UTF-8"?>
<svg width="39px" height="39px" viewBox="0 0 39 39" version="1.1" xmlns="http://www.w3.org/2000/svg" xmlns:xlink="http://www.w3.org/1999/xlink">
    <!-- Generator: Sketch 47.1 (45422) - http://www.bohemiancoding.com/sketch -->
    <title>Icon / Red / Internet</title>
    <desc>Created with Sketch.</desc>
    <defs></defs>
    <g id="Symbols" stroke="none" stroke-width="1" fill="none" fill-rule="evenodd">
        <g id="Icon-/-Red-/-Internet" fill="#DA262D">
            <path d="M19.5,39 C8.73044738,39 0,30.2695526 0,19.5 C0,8.73044738 8.73044738,0 19.5,0 C30.2695526,0 39,8.73044738 39,19.5 C39,30.2695526 30.2695526,39 19.5,39 Z M13.7666667,23.7333333 L26.2333333,23.7333333 C27.2416667,23.7333333 28.0666667,22.9083333 28.0666667,21.9 L28.0666667,13.8333333 C28.0666667,12.825 27.2416667,12 26.2333333,12 L13.7666667,12 C12.7583333,12 11.9333333,12.825 11.9333333,13.8333333 L11.9333333,21.9 C11.9333333,22.9083333 12.7583333,23.7333333 13.7666667,23.7333333 Z M29.1666667,24.4666667 L10.8333333,24.4666667 L9,24.4666667 L9,25.5666667 C9,26.1739583 9.825,26.6666667 10.8333333,26.6666667 L29.1666667,26.6666667 C30.175,26.6666667 31,26.1739583 31,25.5666667 L31,24.4666667 L29.1666667,24.4666667 Z M20.9166667,25.5666667 L19.0833333,25.5666667 C18.9802083,25.5666667 18.9,25.4864583 18.9,25.3833333 C18.9,25.2802083 18.9802083,25.2 19.0833333,25.2 L20.9166667,25.2 C21.0197917,25.2 21.1,25.2802083 21.1,25.3833333 C21.1,25.4864583 21.0197917,25.5666667 20.9166667,25.5666667 Z M13.4,13.8333333 C13.4,13.6385417 13.571875,13.4666667 13.7666667,13.4666667 L26.2333333,13.4666667 C26.428125,13.4666667 26.6,13.6385417 26.6,13.8333333 L26.6,21.9 C26.6,22.0947917 26.428125,22.2666667 26.2333333,22.2666667 L13.7666667,22.2666667 C13.571875,22.2666667 13.4,22.0947917 13.4,21.9 L13.4,13.8333333 Z"></path>
        </g>
    </g>
</svg>