<?xml version="1.0" encoding="UTF-8"?>
<svg width="19px" height="19px" viewBox="0 0 19 19" version="1.1" xmlns="http://www.w3.org/2000/svg" xmlns:xlink="http://www.w3.org/1999/xlink">
    <!-- Generator: Sketch 47.1 (45422) - http://www.bohemiancoding.com/sketch -->
    <title>Phone</title>
    <desc>Created with Sketch.</desc>
    <defs></defs>
    <g id="Symbols" stroke="none" stroke-width="1" fill="none" fill-rule="evenodd">
        <g id="Desktop-/-Installation-Body-Urgency" transform="translate(-1044.000000, -44.000000)" fill="#FFFFFF">
            <g id="Desktop-/-HBO-Body-Urgency">
                <path d="M1063,59.0056818 C1063,59.2485808 1062.95502,59.5656941 1062.86506,59.9570312 C1062.77509,60.3483684 1062.68063,60.6564856 1062.58168,60.881392 C1062.39275,61.3312049 1061.84399,61.8079994 1060.93537,62.3117898 C1060.08972,62.7705989 1059.25308,63 1058.42543,63 C1058.18253,63 1057.94638,62.9842568 1057.71697,62.9527699 C1057.48757,62.921283 1057.22893,62.8650572 1056.94105,62.7840909 C1056.65317,62.7031246 1056.43951,62.6379027 1056.30007,62.5884233 C1056.16063,62.5389439 1055.91099,62.4467336 1055.55114,62.3117898 C1055.19129,62.1768459 1054.97088,62.0958808 1054.88991,62.068892 C1054.00828,61.754023 1053.22112,61.380684 1052.52841,60.9488636 C1051.37689,60.2381593 1050.18715,59.2688272 1048.95916,58.0408381 C1047.73117,56.812849 1046.76184,55.6231118 1046.05114,54.4715909 C1045.61932,53.7788791 1045.24598,52.9917184 1044.93111,52.1100852 C1044.90412,52.0291189 1044.82315,51.8087139 1044.68821,51.4488636 C1044.55327,51.0890134 1044.46106,50.839371 1044.41158,50.699929 C1044.3621,50.560487 1044.29688,50.3468291 1044.21591,50.0589489 C1044.13494,49.7710686 1044.07872,49.5124301 1044.04723,49.2830256 C1044.01574,49.053621 1044,48.8174728 1044,48.5745739 C1044,47.7469182 1044.2294,46.9102788 1044.68821,46.0646307 C1045.192,45.1560087 1045.6688,44.6072453 1046.11861,44.4183239 C1046.34351,44.319365 1046.65163,44.2249058 1047.04297,44.1349432 C1047.43431,44.0449806 1047.75142,44 1047.99432,44 C1048.12027,44 1048.21473,44.0134942 1048.2777,44.040483 C1048.43963,44.0944605 1048.67803,44.4363131 1048.9929,45.0660511 C1049.09186,45.23698 1049.2268,45.4798753 1049.39773,45.7947443 C1049.56866,46.1096133 1049.72609,46.3952402 1049.87003,46.6516335 C1050.01397,46.9080269 1050.15341,47.1486731 1050.28835,47.3735795 C1050.31534,47.4095646 1050.39406,47.5220161 1050.5245,47.7109375 C1050.65495,47.8998589 1050.75166,48.0595401 1050.81463,48.1899858 C1050.8776,48.3204315 1050.90909,48.4486263 1050.90909,48.5745739 C1050.90909,48.754499 1050.7809,48.9794021 1050.5245,49.2492898 C1050.26811,49.5191775 1049.98923,49.7665708 1049.68786,49.9914773 C1049.38648,50.2163837 1049.1076,50.4547809 1048.85121,50.7066761 C1048.59481,50.9585713 1048.46662,51.1654821 1048.46662,51.3274148 C1048.46662,51.4083811 1048.48911,51.5095875 1048.53409,51.6310369 C1048.57907,51.7524864 1048.61731,51.8446967 1048.64879,51.9076705 C1048.68028,51.9706443 1048.74325,52.0785977 1048.83771,52.2315341 C1048.93217,52.3844705 1048.9839,52.4699336 1048.9929,52.4879261 C1049.67661,53.7204134 1050.45928,54.7774577 1051.34091,55.6590909 C1052.22254,56.5407241 1053.27959,57.3233867 1054.51207,58.0071023 C1054.53007,58.0160985 1054.61553,58.0678262 1054.76847,58.1622869 C1054.9214,58.2567476 1055.02936,58.3197205 1055.09233,58.3512074 C1055.1553,58.3826943 1055.24751,58.4209278 1055.36896,58.4659091 C1055.49041,58.5108904 1055.59162,58.5333807 1055.67259,58.5333807 C1055.83452,58.5333807 1056.04143,58.4051859 1056.29332,58.1487926 C1056.54522,57.8923993 1056.78362,57.6135195 1057.00852,57.3121449 C1057.23343,57.0107703 1057.48082,56.7318905 1057.75071,56.4754972 C1058.0206,56.2191038 1058.2455,56.0909091 1058.42543,56.0909091 C1058.55137,56.0909091 1058.67957,56.1223955 1058.81001,56.1853693 C1058.94046,56.2483431 1059.10014,56.3450514 1059.28906,56.4754972 C1059.47798,56.6059429 1059.59044,56.684659 1059.62642,56.7116477 C1059.85133,56.8465916 1060.09197,56.9860315 1060.34837,57.1299716 C1060.60476,57.2739117 1060.89039,57.4313438 1061.20526,57.6022727 C1061.52012,57.7732016 1061.76302,57.9081434 1061.93395,58.0071023 C1062.56369,58.3219713 1062.90554,58.5603685 1062.95952,58.7223011 C1062.98651,58.7852749 1063,58.8797342 1063,59.0056818 L1063,59.0056818 Z" id="Phone"></path>
            </g>
        </g>
    </g>
</svg>