<?xml version="1.0" encoding="UTF-8"?>
<svg width="11px" height="16px" viewBox="0 0 11 16" version="1.1" xmlns="http://www.w3.org/2000/svg" xmlns:xlink="http://www.w3.org/1999/xlink">
    <!-- Generator: Sketch 47.1 (45422) - http://www.bohemiancoding.com/sketch -->
    <title>Pin</title>
    <desc>Created with Sketch.</desc>
    <defs></defs>
    <g id="Symbols" stroke="none" stroke-width="1" fill="none" fill-rule="evenodd">
        <g id="Desktop-/-Mast" transform="translate(-896.000000, -24.000000)" fill="#DA262D">
            <g id="Group-4">
                <g transform="translate(896.000000, 24.000000)">
                    <path d="M5.33333333,0 C8.28125,0 10.6666667,2.38541667 10.6666667,5.33333333 C10.6666667,5.96875 10.59375,6.625 10.3229167,7.19791667 L6.53125,15.2604167 C6.3125,15.71875 5.83333333,16 5.33333333,16 C4.83333333,16 4.35416667,15.71875 4.14583333,15.2604167 L0.34375,7.19791667 C0.0729166667,6.625 0,5.96875 0,5.33333333 C0,2.38541667 2.38541667,0 5.33333333,0 Z M5.33333333,8 C6.80208333,8 8,6.80208333 8,5.33333333 C8,3.86458333 6.80208333,2.66666667 5.33333333,2.66666667 C3.86458333,2.66666667 2.66666667,3.86458333 2.66666667,5.33333333 C2.66666667,6.80208333 3.86458333,8 5.33333333,8 Z" id="Pin"></path>
                </g>
            </g>
        </g>
    </g>
</svg>