<?xml version="1.0" encoding="UTF-8"?>
<svg width="19px" height="19px" viewBox="0 0 19 19" version="1.1" xmlns="http://www.w3.org/2000/svg" xmlns:xlink="http://www.w3.org/1999/xlink">
    <!-- Generator: Sketch 47.1 (45422) - http://www.bohemiancoding.com/sketch -->
    <title>Icon / Red / Tel</title>
    <desc>Created with Sketch.</desc>
    <defs></defs>
    <g id="Symbols" stroke="none" stroke-width="1" fill="none" fill-rule="evenodd">
        <g id="Desktop-/-Sub-Nav" transform="translate(-1039.000000, -28.000000)" fill="#DA262D">
            <g id="Icon-/-Red-/-Tel" transform="translate(1039.000000, 28.000000)">
                <path d="M19,15.0056818 C19,15.2485808 18.9550194,15.5656941 18.8650568,15.9570312 C18.7750942,16.3483684 18.680635,16.6564856 18.5816761,16.881392 C18.3927547,17.3312049 17.8439913,17.8079994 16.9353693,18.3117898 C16.0897212,18.7705989 15.2530818,19 14.4254261,19 C14.1825272,19 13.946379,18.9842568 13.7169744,18.9527699 C13.4875699,18.921283 13.2289314,18.8650572 12.9410511,18.7840909 C12.6531709,18.7031246 12.439513,18.6379027 12.300071,18.5884233 C12.160629,18.5389439 11.9109866,18.4467336 11.5511364,18.3117898 C11.1912861,18.1768459 10.9708811,18.0958808 10.8899148,18.068892 C10.0082816,17.754023 9.22112089,17.380684 8.52840909,16.9488636 C7.37688818,16.2381593 6.18715103,15.2688272 4.95916193,14.0408381 C3.73117284,12.812849 2.76184067,11.6231118 2.05113636,10.4715909 C1.61931602,9.77887911 1.24597695,8.99171842 0.931107955,8.11008523 C0.904119183,8.02911891 0.823154084,7.80871392 0.688210227,7.44886364 C0.553266371,7.08901335 0.461056119,6.83937096 0.411576705,6.69992898 C0.36209729,6.56048699 0.296875405,6.34682909 0.215909091,6.05894886 C0.134942777,5.77106864 0.0787170135,5.51243012 0.0472301136,5.28302557 C0.0157432138,5.05362101 0,4.81747281 0,4.57457386 C0,3.74691821 0.229401115,2.91027885 0.688210227,2.06463068 C1.19200063,1.15600871 1.6687951,0.607245263 2.11860795,0.418323864 C2.34351438,0.319365036 2.65163157,0.224905753 3.04296875,0.134943182 C3.43430593,0.0449806108 3.75141924,0 3.99431818,0 C4.12026578,0 4.21472506,0.0134941832 4.27769886,0.0404829545 C4.43963149,0.0944604972 4.67802873,0.436313139 4.99289773,1.06605114 C5.09185656,1.23698002 5.22679839,1.47987532 5.39772727,1.79474432 C5.56865616,2.10961332 5.7260883,2.3952402 5.87002841,2.65163352 C6.01396852,2.90802685 6.15340842,3.14867312 6.28835227,3.37357955 C6.31534104,3.40956457 6.39405711,3.5220161 6.52450284,3.7109375 C6.65494857,3.8998589 6.75165688,4.05954007 6.81463068,4.1899858 C6.87760448,4.32043152 6.90909091,4.44862626 6.90909091,4.57457386 C6.90909091,4.75449901 6.78089617,4.97940206 6.52450284,5.24928977 C6.26810951,5.51917749 5.98922973,5.76657085 5.68785511,5.99147727 C5.3864805,6.2163837 5.10760071,6.45478094 4.85120739,6.70667614 C4.59481406,6.95857134 4.46661932,7.16548214 4.46661932,7.32741477 C4.46661932,7.40838109 4.48910962,7.50958746 4.53409091,7.63103693 C4.57907219,7.7524864 4.61730571,7.84469665 4.64879261,7.90767045 C4.68027951,7.97064425 4.74325237,8.07859772 4.83771307,8.23153409 C4.93217377,8.38447046 4.98390147,8.46993362 4.99289773,8.48792614 C5.67661327,9.72041336 6.45927589,10.7774577 7.34090909,11.6590909 C8.22254229,12.5407241 9.27958664,13.3233867 10.5120739,14.0071023 C10.5300664,14.0160985 10.6155295,14.0678262 10.7684659,14.1622869 C10.9214023,14.2567476 11.0293557,14.3197205 11.0923295,14.3512074 C11.1553033,14.3826943 11.2475136,14.4209278 11.3689631,14.4659091 C11.4904125,14.5108904 11.5916189,14.5333807 11.6725852,14.5333807 C11.8345179,14.5333807 12.0414287,14.4051859 12.2933239,14.1487926 C12.5452191,13.8923993 12.7836163,13.6135195 13.0085227,13.3121449 C13.2334292,13.0107703 13.4808225,12.7318905 13.7507102,12.4754972 C14.0205979,12.2191038 14.245501,12.0909091 14.4254261,12.0909091 C14.5513737,12.0909091 14.6795685,12.1223955 14.8100142,12.1853693 C14.9404599,12.2483431 15.1001411,12.3450514 15.2890625,12.4754972 C15.4779839,12.6059429 15.5904354,12.684659 15.6264205,12.7116477 C15.8513269,12.8465916 16.0919731,12.9860315 16.3483665,13.1299716 C16.6047598,13.2739117 16.8903867,13.4313438 17.2052557,13.6022727 C17.5201247,13.7732016 17.76302,13.9081434 17.9339489,14.0071023 C18.5636869,14.3219713 18.9055395,14.5603685 18.959517,14.7223011 C18.9865058,14.7852749 19,14.8797342 19,15.0056818 L19,15.0056818 Z" id="Phone"></path>
            </g>
        </g>
    </g>
</svg>