<?xml version="1.0" encoding="UTF-8"?>
<svg width="72px" height="69px" viewBox="0 0 72 69" version="1.1" xmlns="http://www.w3.org/2000/svg" xmlns:xlink="http://www.w3.org/1999/xlink">
    <!-- Generator: Sketch 47.1 (45422) - http://www.bohemiancoding.com/sketch -->
    <title>Icon / Aqua / Thumb</title>
    <desc>Created with Sketch.</desc>
    <defs></defs>
    <g id="Page-1" stroke="none" stroke-width="1" fill="none" fill-rule="evenodd">
        <g id="CXIB-5436-Legacy-Desktop-Bundles" transform="translate(-664.000000, -1682.000000)" fill="#3BC1CD">
            <g id="Icon-/-Aqua-/-Thumb" transform="translate(664.000000, 1682.000000)">
                <path d="M11.7857279,54.4285612 C11.7857279,52.8660593 10.4910835,51.5714149 8.92858165,51.5714149 C7.32143687,51.5714149 6.07143538,52.8660593 6.07143538,54.4285612 C6.07143538,56.035706 7.32143687,57.2857075 8.92858165,57.2857075 C10.4910835,57.2857075 11.7857279,56.035706 11.7857279,54.4285612 Z M18.9285936,31.5713911 L18.9285936,60.1428537 C18.9285936,61.7053556 17.6339492,63 16.0714473,63 L3.21428912,63 C1.65178726,63 0.357142857,61.7053556 0.357142857,60.1428537 L0.357142857,31.5713911 C0.357142857,30.0088892 1.65178726,28.7142448 3.21428912,28.7142448 L16.0714473,28.7142448 C17.6339492,28.7142448 18.9285936,30.0088892 18.9285936,31.5713911 Z M71.7857994,31.5713911 C71.7857994,26.9285284 67.8572233,22.9999523 63.2143606,22.9999523 L50.8482745,22.9999523 C51.2054178,21.5713792 51.6518469,21.1249501 52.1429189,20.1428061 C53.3482775,17.8213747 54.6429219,15.2320859 54.6429219,11.5713673 C54.6429219,8.13386317 54.6429219,0.142782211 44.6429099,0.142782211 C43.8839805,0.142782211 43.1696939,0.455282584 42.633979,0.990997508 C40.7143338,2.86599974 40.1786189,5.63386019 39.6875469,8.2677919 C39.151832,10.8570807 38.6607599,13.5356553 36.9196864,15.2767288 C35.5357562,16.660659 34.0178973,18.5803042 32.4107525,20.6338781 C30.4464644,23.2231669 26.160745,28.5356732 24.5089574,28.6696019 C23.0357413,28.8035307 21.7857398,30.0535322 21.7857398,31.5267482 L21.7857398,60.1428537 C21.7857398,61.7053556 23.1250271,62.9553571 24.6428861,63 C26.205388,63.0446429 28.8839626,63.982144 31.6964659,64.9642881 C36.5179002,66.6160757 42.5446931,68.7142925 48.9286293,68.7142925 L54.6875648,68.7142925 C58.6161409,68.6696496 61.562573,67.5089339 63.4822181,65.2321455 C65.1786487,63.2232146 65.9375782,60.499997 65.6697207,57.1517787 C66.7857935,56.0803489 67.6340088,54.6071329 68.0804379,52.9553452 C68.5715099,51.1696288 68.5715099,49.3839123 68.0804379,47.7321247 C69.4197252,45.9464082 70.0893688,43.8481915 70.000083,41.6160459 C70.000083,40.9910452 69.8215114,39.6517579 69.3304394,38.2231847 C70.8482983,36.4821112 71.7857994,33.9374654 71.7857994,31.5713911 Z" id="aqua-thumb"></path>
            </g>
        </g>
    </g>
</svg>