<?xml version="1.0" encoding="UTF-8"?>
<svg width="39px" height="39px" viewBox="0 0 39 39" version="1.1" xmlns="http://www.w3.org/2000/svg" xmlns:xlink="http://www.w3.org/1999/xlink">
    <!-- Generator: Sketch 47.1 (45422) - http://www.bohemiancoding.com/sketch -->
    <title>Icon / Red / TV</title>
    <desc>Created with Sketch.</desc>
    <defs></defs>
    <g id="Symbols" stroke="none" stroke-width="1" fill="none" fill-rule="evenodd">
        <g id="Desktop-/-Sub-Nav" transform="translate(-351.000000, -18.000000)" fill="#DA262D">
            <g id="Icon-/-Red-/-TV" transform="translate(351.000000, 18.000000)">
                <path d="M19.5,39 C8.73044738,39 0,30.2695526 0,19.5 C0,8.73044738 8.73044738,0 19.5,0 C30.2695526,0 39,8.73044738 39,19.5 C39,30.2695526 30.2695526,39 19.5,39 Z M31,12.8333333 C31,11.825 30.175,11 29.1666667,11 L10.8333333,11 C9.825,11 9,11.825 9,12.8333333 L9,23.8333333 C9,24.8416667 9.825,25.6666667 10.8333333,25.6666667 L19.2666667,25.6666667 L19.2666667,27.1333333 L15.2333333,27.1333333 C15.0270833,27.1333333 14.8666667,27.29375 14.8666667,27.5 L14.8666667,28.2333333 C14.8666667,28.4395833 15.0270833,28.6 15.2333333,28.6 L24.7666667,28.6 C24.9729167,28.6 25.1333333,28.4395833 25.1333333,28.2333333 L25.1333333,27.5 C25.1333333,27.29375 24.9729167,27.1333333 24.7666667,27.1333333 L20.7333333,27.1333333 L20.7333333,25.6666667 L29.1666667,25.6666667 C30.175,25.6666667 31,24.8416667 31,23.8333333 L31,12.8333333 Z M29.5333333,23.8333333 C29.5333333,24.028125 29.3614583,24.2 29.1666667,24.2 L10.8333333,24.2 C10.6385417,24.2 10.4666667,24.028125 10.4666667,23.8333333 L10.4666667,12.8333333 C10.4666667,12.6385417 10.6385417,12.4666667 10.8333333,12.4666667 L29.1666667,12.4666667 C29.3614583,12.4666667 29.5333333,12.6385417 29.5333333,12.8333333 L29.5333333,23.8333333 Z"></path>
            </g>
        </g>
    </g>
</svg>