<?xml version="1.0" encoding="UTF-8"?>
<svg width="124px" height="38px" viewBox="0 0 124 38" version="1.1" xmlns="http://www.w3.org/2000/svg" xmlns:xlink="http://www.w3.org/1999/xlink">
    <!-- Generator: Sketch 47.1 (45422) - http://www.bohemiancoding.com/sketch -->
    <title>Logo/Dark/Frontier</title>
    <desc>Created with Sketch.</desc>
    <defs></defs>
    <g id="Symbols" stroke="none" stroke-width="1" fill="none" fill-rule="evenodd">
        <g id="Desktop-/-Mast" transform="translate(-116.000000, -61.000000)" fill="#DA262D">
            <g id="Logo/Dark/Frontier">
                <g transform="translate(115.000000, 61.000000)">
                    <path d="M1.0193407,11.9707795 L18.2610581,11.9707795 L18.2610581,16.1745734 L5.87119499,16.1745734 L5.87119499,22.5164383 L17.5894208,22.5164383 L17.5894208,26.573001 L5.87119499,26.573001 L5.87119499,37.1557114 L1.0193407,37.1557114 L1.0193407,11.9707795 Z M31.3218086,24.176037 C30.6872761,23.9547025 30.1648477,23.8070813 29.493013,23.8070813 C26.7685694,23.8070813 24.5667516,26.4989758 24.5667516,30.3708656 L24.5667516,37.1557894 L19.9391054,37.1557894 L19.9391054,20.0092946 L24.5294494,20.0092946 L24.5294494,22.8117589 L24.6040538,22.8117589 C25.6491081,20.7838676 27.1419863,19.6038724 29.3811063,19.6038724 C30.2021499,19.6038724 30.7618805,19.7881552 31.3218086,20.0092946 L31.3218086,24.176037 Z M121.518082,24.176037 C120.883352,23.9547025 120.360924,23.8070813 119.689286,23.8070813 C116.964843,23.8070813 114.762827,26.4989758 114.762827,30.3708656 L114.762827,37.1557894 L110.135181,37.1557894 L110.135181,20.0092946 L114.72592,20.0092946 L114.72592,22.8117589 L114.800327,22.8117589 C115.845381,20.7838676 117.33826,19.6038724 119.577182,19.6038724 C120.398226,19.6038724 120.958351,19.7881552 121.518082,20.0092946 L121.518082,24.176037 Z M50.690088,28.6009703 C50.690088,33.0998118 47.0701938,37.5614067 41.0988782,37.5614067 C35.2769688,37.5614067 31.619575,33.3576127 31.619575,28.6376319 C31.619575,23.2544277 36.1724194,19.6038724 40.9123671,19.6038724 C47.3313093,19.6038724 50.690088,24.2132836 50.690088,28.6009703 Z M68.4157672,37.1557114 L63.7879236,37.1557114 L63.7879236,27.1997577 C63.7879236,25.4296673 63.2656925,24.0283377 61.2501884,24.0283377 C58.4515351,24.0283377 56.8092507,26.9051001 56.8092507,30.1866998 L56.8092507,37.1557114 L52.1816044,37.1557114 L52.1816044,20.0094116 L56.8056981,20.0094116 L56.8092507,22.7011112 C57.5556898,21.5948291 58.9366614,19.6037944 62.2952427,19.6037944 C66.4752623,19.6037944 68.4157672,22.4429202 68.4157672,25.9827109 L68.4157672,37.1557114 Z M83.9384246,37.1557114 L83.9384246,20.0094116 L88.5660709,20.0094116 L88.5660709,37.1557114 L83.9384246,37.1557114 Z M107.859923,29.1907924 L95.0218416,29.1907924 C95.2833519,30.0388835 95.5073626,30.6656402 96.1041981,31.4035516 C97.2238568,32.7307781 98.8659439,33.3575347 100.321323,33.3575347 C102.859255,33.3575347 105.172979,32.0667748 107.188089,30.5186039 L107.188089,35.2013382 C105.658303,36.0129628 102.784453,37.5613287 99.5748835,37.5613287 C94.0515892,37.5613287 90.2072896,33.3945863 90.2072896,28.6375539 C90.2072896,23.8440548 94.0886941,19.6037944 99.2389661,19.6037944 C104.46404,19.6037944 107.859923,23.2910113 107.859923,28.4903226 L107.859923,29.1907924 Z M76.6087753,14.883911 L76.6087753,20.0463657 L81.4604323,20.0463657 L81.4604323,23.4757817 L76.7581816,23.4757817 L76.7581816,30.9609802 C76.7581816,32.8784969 77.8030385,33.3576322 78.9974989,33.3576322 C79.9304492,33.3576322 80.7514927,33.0625847 81.4604323,32.7677321 L81.4604323,36.8237098 C80.079658,37.1928605 78.6611869,37.4141949 77.2433078,37.4141949 C74.1085398,37.4141949 72.130338,35.8281924 72.130338,32.5093461 L72.130338,23.4757817 L69.2566855,23.4757817 L69.2566855,20.0463657 L72.1331011,20.0463657 L72.1331011,14.8648002 L76.6087753,14.8648002 L76.6087753,14.883911 Z M123.466481,19.9905933 L123.837135,20.499955 L124.211539,19.9905933 L124.462391,19.9905933 L124.462391,21.1657133 L124.204039,21.1657133 L124.215289,20.3930905 L123.859438,20.8864615 L123.803583,20.8864615 L123.455429,20.3809999 L123.466481,21.1657133 L123.204576,21.1657133 L123.204576,19.9905933 L123.466481,19.9905933 Z M121.995313,20.2329886 L121.995313,19.9946885 L123.039973,19.9946885 L123.039973,20.2329886 L122.646622,20.2329886 L122.646622,21.1657133 L122.38827,21.1657133 L122.38827,20.2329886 L121.995313,20.2329886 Z M80.8459917,9.63906525 C80.8459917,10.8432415 79.8585684,11.8198431 78.6398318,11.8198431 C77.4201085,11.8198431 76.4326852,10.8432415 76.4326852,9.63906525 C76.4326852,8.43547403 77.4201085,7.45867745 78.6398318,7.45867745 C79.8585684,7.45867745 80.8459917,8.43547403 80.8459917,9.63906525 Z M72.7722717,5.45182754 C72.7722717,6.46528567 71.9407677,7.28763567 70.9136738,7.28763567 C69.8875667,7.28763567 69.0572469,6.46528567 69.0572469,5.45182754 C69.0572469,4.43817439 69.8875667,3.61582439 70.9136738,3.61582439 C71.9407677,3.61582439 72.7722717,4.43817439 72.7722717,5.45182754 Z M65.0493701,2.81196118 C65.0493701,3.76243163 64.2697735,4.53368946 63.3078104,4.53368946 C62.3448606,4.53368946 61.5666455,3.76243163 61.5666455,2.81196118 C61.5666455,1.86129572 62.3448606,1.09101293 63.3078104,1.09101293 C64.2697735,1.09101293 65.0493701,1.86129572 65.0493701,2.81196118 Z M56.802481,1.49099446 C56.802481,2.31451451 56.1278832,2.98241794 55.2934187,2.98241794 C54.4597437,2.98241794 53.7841591,2.31451451 53.7841591,1.49099446 C53.7841591,0.6672794 54.4597437,0.00015600664 55.2934187,0.00015600664 C56.1278832,0.00015600664 56.802481,0.6672794 56.802481,1.49099446 Z M48.4393629,1.49099446 C48.4393629,2.1873691 47.8677902,2.75250315 47.1616138,2.75250315 C46.4564242,2.75250315 45.8858384,2.1873691 45.8858384,1.49099446 C45.8858384,0.794424812 46.4564242,0.229290759 47.1616138,0.229290759 C47.8677902,0.229290759 48.4393629,0.794424812 48.4393629,1.49099446 Z M40.3361761,2.52422643 C40.3361761,3.14103769 39.8307211,3.64162399 39.206057,3.64162399 C38.580406,3.64162399 38.0749511,3.14103769 38.0749511,2.52422643 C38.0749511,1.90683016 38.580406,1.40682888 39.206057,1.40682888 C39.8307211,1.40682888 40.3361761,1.90683016 40.3361761,2.52422643 Z M32.3807179,5.39344205 C32.3807179,5.82012021 32.0301955,6.16606494 31.5981608,6.16606494 C31.1661261,6.16606494 30.8156036,5.82012021 30.8156036,5.39344205 C30.8156036,4.96598386 31.1661261,4.62003914 31.5981608,4.62003914 C32.0301955,4.62003914 32.3807179,4.96598386 32.3807179,5.39344205 Z M25.8142444,9.73019263 C25.8142444,9.997354 25.5961547,10.2134232 25.3259603,10.2134232 C25.0559633,10.2134232 24.8368868,9.997354 24.8368868,9.73019263 C24.8368868,9.46303126 25.0559633,9.24676705 25.3259603,9.24676705 C25.5961547,9.24676705 25.8142444,9.46303126 25.8142444,9.73019263 Z M21.8807944,14.5497058 C21.8807944,14.7491992 21.7167831,14.9118362 21.5138906,14.9118362 C21.3111955,14.9118362 21.1471841,14.7491992 21.1471841,14.5497058 C21.1471841,14.3496272 21.3111955,14.1867953 21.5138906,14.1867953 C21.7167831,14.1867953 21.8807944,14.3496272 21.8807944,14.5497058 Z M88.6529317,15.4774187 C88.6529317,16.8122506 87.5387993,17.879921 86.1882221,17.879921 C84.769751,17.879921 83.7233152,16.7451677 83.7233152,15.4442673 C83.7233152,14.0097863 84.9386965,13.0088087 86.0869733,13.0088087 C86.9307139,13.0088087 88.6529317,13.7094735 88.6529317,15.4774187 Z M102.859255,26.056424 C102.560443,24.1024408 100.843948,23.0332103 99.3510701,23.0332103 C98.9780479,23.0332103 96.4026159,23.14378 95.4323634,26.056424 L102.859255,26.056424 Z M36.5831386,28.5641137 C36.5831386,31.624769 38.8970604,33.505234 41.2482844,33.505234 C43.9352284,33.505234 45.7265244,30.9976223 45.7265244,28.6376319 C45.7265244,26.1306052 43.860624,23.65985 41.2853893,23.65985 C38.5984453,23.65985 36.5831386,25.7614544 36.5831386,28.5641137 Z" id="Combined-Shape"></path>
                </g>
            </g>
        </g>
    </g>
</svg>